<mxfile host="65bd71144e">
    <diagram id="OE5_vPEa7U1xJc33tj5P" name="Page-1">
        <mxGraphModel dx="1668" dy="3445" grid="1" gridSize="10" guides="1" tooltips="1" connect="1" arrows="1" fold="1" page="1" pageScale="1" pageWidth="1169" pageHeight="827" math="0" shadow="0">
            <root>
                <mxCell id="0"/>
                <mxCell id="1" parent="0"/>
                <mxCell id="171" value="" style="rounded=0;whiteSpace=wrap;html=1;" parent="1" vertex="1">
                    <mxGeometry x="117" y="-2228" width="480" height="306" as="geometry"/>
                </mxCell>
                <mxCell id="172" value="&lt;div style=&quot;color: rgb(41, 41, 41); font-family: &amp;quot;Droid Sans Mono&amp;quot;, &amp;quot;monospace&amp;quot;, monospace; line-height: 19px;&quot;&gt;&lt;b style=&quot;&quot;&gt;&lt;font style=&quot;font-size: 12px;&quot;&gt;SIAFE_RECIFE_2024.SPE_ND&lt;/font&gt;&lt;/b&gt;&lt;/div&gt;&lt;div style=&quot;color: rgb(41, 41, 41); font-family: &amp;quot;Droid Sans Mono&amp;quot;, &amp;quot;monospace&amp;quot;, monospace; line-height: 19px;&quot;&gt;&lt;b style=&quot;&quot;&gt;&lt;font style=&quot;font-size: 12px;&quot;&gt;&quot;ND Nota Dotação&quot;&lt;/font&gt;&lt;/b&gt;&lt;/div&gt;" style="rounded=0;whiteSpace=wrap;html=1;fillColor=#fa6800;strokeColor=#C73500;fontColor=#000000;" parent="1" vertex="1">
                    <mxGeometry x="116" y="-2268" width="480" height="40" as="geometry"/>
                </mxCell>
                <mxCell id="173" value="" style="group" parent="1" vertex="1" connectable="0">
                    <mxGeometry x="136" y="-2217" width="440" height="20" as="geometry"/>
                </mxCell>
                <mxCell id="174" value="&lt;div style=&quot;color: rgb(41, 41, 41); font-family: &amp;quot;Droid Sans Mono&amp;quot;, &amp;quot;monospace&amp;quot;, monospace; line-height: 19px;&quot;&gt;&lt;div style=&quot;line-height: 19px;&quot;&gt;&lt;font style=&quot;font-size: 10px;&quot;&gt;ANO_EXERCICIO_CTX&lt;/font&gt;&lt;/div&gt;&lt;/div&gt;" style="rounded=1;whiteSpace=wrap;html=1;align=left;fillColor=#ffcd28;strokeColor=#d79b00;gradientColor=#ffa500;" parent="173" vertex="1">
                    <mxGeometry x="50" width="160" height="20" as="geometry"/>
                </mxCell>
                <mxCell id="175" value="&lt;div style=&quot;color: rgb(41, 41, 41); font-family: &amp;quot;Droid Sans Mono&amp;quot;, &amp;quot;monospace&amp;quot;, monospace; line-height: 19px;&quot;&gt;&lt;font style=&quot;font-size: 10px;&quot;&gt;INT&lt;/font&gt;&lt;/div&gt;" style="rounded=1;whiteSpace=wrap;html=1;align=left;" parent="173" vertex="1">
                    <mxGeometry width="40" height="20" as="geometry"/>
                </mxCell>
                <mxCell id="195" value="&lt;div style=&quot;color: rgb(41, 41, 41); font-family: &amp;quot;Droid Sans Mono&amp;quot;, &amp;quot;monospace&amp;quot;, monospace; line-height: 19px;&quot;&gt;&lt;div style=&quot;line-height: 19px;&quot;&gt;&lt;font style=&quot;font-size: 10px;&quot;&gt;2024&lt;/font&gt;&lt;/div&gt;&lt;/div&gt;" style="rounded=1;whiteSpace=wrap;html=1;align=left;" parent="173" vertex="1">
                    <mxGeometry x="220" width="220" height="20" as="geometry"/>
                </mxCell>
                <mxCell id="191" value="OBS.: Contêm uma descrição sobre a tabela." style="rounded=0;whiteSpace=wrap;html=1;fontSize=10;align=left;fillColor=#fff2cc;strokeColor=#d6b656;" parent="1" vertex="1">
                    <mxGeometry x="136" y="-1966" width="440" height="35" as="geometry"/>
                </mxCell>
                <mxCell id="192" value="&lt;b&gt;RELAÇÃO ENTRE TABELAS&lt;/b&gt;" style="rounded=0;whiteSpace=wrap;html=1;fillColor=#fa6800;fontColor=#000000;strokeColor=#C73500;" parent="1" vertex="1">
                    <mxGeometry x="18" y="-2453" width="1132" height="30" as="geometry"/>
                </mxCell>
                <mxCell id="197" value="" style="group" parent="1" vertex="1" connectable="0">
                    <mxGeometry x="136" y="-2193" width="440" height="20" as="geometry"/>
                </mxCell>
                <mxCell id="198" value="&lt;div style=&quot;color: rgb(41, 41, 41); font-family: &amp;quot;Droid Sans Mono&amp;quot;, &amp;quot;monospace&amp;quot;, monospace; line-height: 19px;&quot;&gt;&lt;div style=&quot;line-height: 19px;&quot;&gt;&lt;font style=&quot;font-size: 10px;&quot;&gt;COD_CLIENTE_CTX&lt;/font&gt;&lt;/div&gt;&lt;/div&gt;" style="rounded=1;whiteSpace=wrap;html=1;align=left;fillColor=#ffcd28;strokeColor=#d79b00;gradientColor=#ffa500;" parent="197" vertex="1">
                    <mxGeometry x="50" width="160" height="20" as="geometry"/>
                </mxCell>
                <mxCell id="199" value="&lt;div style=&quot;color: rgb(41, 41, 41); font-family: &amp;quot;Droid Sans Mono&amp;quot;, &amp;quot;monospace&amp;quot;, monospace; line-height: 19px;&quot;&gt;&lt;font style=&quot;font-size: 10px;&quot;&gt;STR&lt;/font&gt;&lt;/div&gt;" style="rounded=1;whiteSpace=wrap;html=1;align=left;" parent="197" vertex="1">
                    <mxGeometry width="40" height="20" as="geometry"/>
                </mxCell>
                <mxCell id="200" value="&lt;div style=&quot;color: rgb(41, 41, 41); font-family: &amp;quot;Droid Sans Mono&amp;quot;, &amp;quot;monospace&amp;quot;, monospace; line-height: 19px;&quot;&gt;&lt;div style=&quot;line-height: 19px;&quot;&gt;&lt;font style=&quot;font-size: 10px;&quot;&gt;00001&lt;/font&gt;&lt;/div&gt;&lt;/div&gt;" style="rounded=1;whiteSpace=wrap;html=1;align=left;" parent="197" vertex="1">
                    <mxGeometry x="220" width="220" height="20" as="geometry"/>
                </mxCell>
                <mxCell id="201" value="" style="group" parent="1" vertex="1" connectable="0">
                    <mxGeometry x="136" y="-2169" width="440" height="20" as="geometry"/>
                </mxCell>
                <mxCell id="202" value="&lt;div style=&quot;color: rgb(41, 41, 41); font-family: &amp;quot;Droid Sans Mono&amp;quot;, &amp;quot;monospace&amp;quot;, monospace; line-height: 19px;&quot;&gt;&lt;div style=&quot;line-height: 19px;&quot;&gt;&lt;font style=&quot;font-size: 10px;&quot;&gt;IDT_DOCUMENTO&lt;/font&gt;&lt;/div&gt;&lt;/div&gt;" style="rounded=1;whiteSpace=wrap;html=1;align=left;fillColor=#ffcd28;strokeColor=#d79b00;gradientColor=#ffa500;" parent="201" vertex="1">
                    <mxGeometry x="50" width="160" height="20" as="geometry"/>
                </mxCell>
                <mxCell id="203" value="&lt;div style=&quot;color: rgb(41, 41, 41); font-family: &amp;quot;Droid Sans Mono&amp;quot;, &amp;quot;monospace&amp;quot;, monospace; line-height: 19px;&quot;&gt;&lt;font style=&quot;font-size: 10px;&quot;&gt;INT&lt;/font&gt;&lt;/div&gt;" style="rounded=1;whiteSpace=wrap;html=1;align=left;" parent="201" vertex="1">
                    <mxGeometry width="40" height="20" as="geometry"/>
                </mxCell>
                <mxCell id="204" value="&lt;div style=&quot;color: rgb(41, 41, 41); font-family: &amp;quot;Droid Sans Mono&amp;quot;, &amp;quot;monospace&amp;quot;, monospace; line-height: 19px;&quot;&gt;&lt;div style=&quot;line-height: 19px;&quot;&gt;&lt;font style=&quot;font-size: 10px;&quot;&gt;411&lt;/font&gt;&lt;/div&gt;&lt;/div&gt;" style="rounded=1;whiteSpace=wrap;html=1;align=left;" parent="201" vertex="1">
                    <mxGeometry x="220" width="220" height="20" as="geometry"/>
                </mxCell>
                <mxCell id="205" value="" style="group" parent="1" vertex="1" connectable="0">
                    <mxGeometry x="136" y="-2146" width="440" height="20" as="geometry"/>
                </mxCell>
                <mxCell id="206" value="&lt;div style=&quot;color: rgb(41, 41, 41); font-family: &amp;quot;Droid Sans Mono&amp;quot;, &amp;quot;monospace&amp;quot;, monospace; line-height: 19px;&quot;&gt;&lt;div style=&quot;line-height: 19px;&quot;&gt;&lt;font style=&quot;font-size: 10px;&quot;&gt;ANO_DOCUMENTO&lt;/font&gt;&lt;/div&gt;&lt;/div&gt;" style="rounded=1;whiteSpace=wrap;html=1;align=left;" parent="205" vertex="1">
                    <mxGeometry x="50" width="160" height="20" as="geometry"/>
                </mxCell>
                <mxCell id="207" value="&lt;div style=&quot;color: rgb(41, 41, 41); font-family: &amp;quot;Droid Sans Mono&amp;quot;, &amp;quot;monospace&amp;quot;, monospace; line-height: 19px;&quot;&gt;&lt;font style=&quot;font-size: 10px;&quot;&gt;INT&lt;/font&gt;&lt;/div&gt;" style="rounded=1;whiteSpace=wrap;html=1;align=left;" parent="205" vertex="1">
                    <mxGeometry width="40" height="20" as="geometry"/>
                </mxCell>
                <mxCell id="208" value="&lt;div style=&quot;color: rgb(41, 41, 41); font-family: &amp;quot;Droid Sans Mono&amp;quot;, &amp;quot;monospace&amp;quot;, monospace; line-height: 19px;&quot;&gt;&lt;div style=&quot;line-height: 19px;&quot;&gt;&lt;font style=&quot;font-size: 10px;&quot;&gt;2024&lt;/font&gt;&lt;/div&gt;&lt;/div&gt;" style="rounded=1;whiteSpace=wrap;html=1;align=left;" parent="205" vertex="1">
                    <mxGeometry x="220" width="220" height="20" as="geometry"/>
                </mxCell>
                <mxCell id="209" value="" style="group" parent="1" vertex="1" connectable="0">
                    <mxGeometry x="136" y="-2121" width="440" height="20" as="geometry"/>
                </mxCell>
                <mxCell id="210" value="&lt;div style=&quot;color: rgb(41, 41, 41); font-family: &amp;quot;Droid Sans Mono&amp;quot;, &amp;quot;monospace&amp;quot;, monospace; line-height: 19px;&quot;&gt;&lt;div style=&quot;line-height: 19px;&quot;&gt;&lt;font style=&quot;font-size: 10px;&quot;&gt;COD_UG&lt;/font&gt;&lt;/div&gt;&lt;/div&gt;" style="rounded=1;whiteSpace=wrap;html=1;align=left;" parent="209" vertex="1">
                    <mxGeometry x="50" width="160" height="20" as="geometry"/>
                </mxCell>
                <mxCell id="211" value="&lt;div style=&quot;color: rgb(41, 41, 41); font-family: &amp;quot;Droid Sans Mono&amp;quot;, &amp;quot;monospace&amp;quot;, monospace; line-height: 19px;&quot;&gt;&lt;font style=&quot;font-size: 10px;&quot;&gt;STR&lt;/font&gt;&lt;/div&gt;" style="rounded=1;whiteSpace=wrap;html=1;align=left;" parent="209" vertex="1">
                    <mxGeometry width="40" height="20" as="geometry"/>
                </mxCell>
                <mxCell id="212" value="&lt;div style=&quot;color: rgb(41, 41, 41); font-family: &amp;quot;Droid Sans Mono&amp;quot;, &amp;quot;monospace&amp;quot;, monospace; line-height: 19px;&quot;&gt;&lt;div style=&quot;line-height: 19px;&quot;&gt;&lt;font style=&quot;font-size: 10px;&quot;&gt;010100&lt;/font&gt;&lt;/div&gt;&lt;/div&gt;" style="rounded=1;whiteSpace=wrap;html=1;align=left;" parent="209" vertex="1">
                    <mxGeometry x="220" width="220" height="20" as="geometry"/>
                </mxCell>
                <mxCell id="246" value="" style="group" parent="1" vertex="1" connectable="0">
                    <mxGeometry x="136" y="-2097" width="440" height="20" as="geometry"/>
                </mxCell>
                <mxCell id="247" value="&lt;div style=&quot;color: rgb(41, 41, 41); font-family: &amp;quot;Droid Sans Mono&amp;quot;, &amp;quot;monospace&amp;quot;, monospace; line-height: 19px;&quot;&gt;&lt;div style=&quot;line-height: 19px;&quot;&gt;&lt;font style=&quot;font-size: 10px;&quot;&gt;NUM_DOC_REFERENCIA&lt;/font&gt;&lt;/div&gt;&lt;/div&gt;" style="rounded=1;whiteSpace=wrap;html=1;align=left;" parent="246" vertex="1">
                    <mxGeometry x="50" width="160" height="20" as="geometry"/>
                </mxCell>
                <mxCell id="248" value="&lt;div style=&quot;color: rgb(41, 41, 41); font-family: &amp;quot;Droid Sans Mono&amp;quot;, &amp;quot;monospace&amp;quot;, monospace; line-height: 19px;&quot;&gt;&lt;span style=&quot;font-size: 10px;&quot;&gt;STR&lt;/span&gt;&lt;/div&gt;" style="rounded=1;whiteSpace=wrap;html=1;align=left;" parent="246" vertex="1">
                    <mxGeometry width="40" height="20" as="geometry"/>
                </mxCell>
                <mxCell id="249" value="&lt;div style=&quot;color: rgb(41, 41, 41); font-family: &amp;quot;Droid Sans Mono&amp;quot;, &amp;quot;monospace&amp;quot;, monospace; line-height: 19px;&quot;&gt;&lt;div style=&quot;line-height: 19px;&quot;&gt;&lt;font style=&quot;font-size: 10px;&quot;&gt;19.154&lt;/font&gt;&lt;/div&gt;&lt;/div&gt;" style="rounded=1;whiteSpace=wrap;html=1;align=left;" parent="246" vertex="1">
                    <mxGeometry x="220" width="220" height="20" as="geometry"/>
                </mxCell>
                <mxCell id="250" value="" style="group" parent="1" vertex="1" connectable="0">
                    <mxGeometry x="136" y="-2072" width="440" height="20" as="geometry"/>
                </mxCell>
                <mxCell id="251" value="&lt;div style=&quot;color: rgb(41, 41, 41); font-family: &amp;quot;Droid Sans Mono&amp;quot;, &amp;quot;monospace&amp;quot;, monospace; line-height: 19px;&quot;&gt;&lt;div style=&quot;line-height: 19px;&quot;&gt;&lt;font style=&quot;font-size: 10px;&quot;&gt;IND_STATUS&lt;/font&gt;&lt;/div&gt;&lt;/div&gt;" style="rounded=1;whiteSpace=wrap;html=1;align=left;" parent="250" vertex="1">
                    <mxGeometry x="50" width="160" height="20" as="geometry"/>
                </mxCell>
                <mxCell id="252" value="&lt;div style=&quot;color: rgb(41, 41, 41); font-family: &amp;quot;Droid Sans Mono&amp;quot;, &amp;quot;monospace&amp;quot;, monospace; line-height: 19px;&quot;&gt;&lt;span style=&quot;font-size: 10px;&quot;&gt;INT&lt;/span&gt;&lt;/div&gt;" style="rounded=1;whiteSpace=wrap;html=1;align=left;" parent="250" vertex="1">
                    <mxGeometry width="40" height="20" as="geometry"/>
                </mxCell>
                <mxCell id="253" value="&lt;div style=&quot;color: rgb(41, 41, 41); font-family: &amp;quot;Droid Sans Mono&amp;quot;, &amp;quot;monospace&amp;quot;, monospace; line-height: 19px;&quot;&gt;&lt;div style=&quot;line-height: 19px;&quot;&gt;&lt;font style=&quot;font-size: 10px;&quot;&gt;1&lt;/font&gt;&lt;/div&gt;&lt;/div&gt;" style="rounded=1;whiteSpace=wrap;html=1;align=left;" parent="250" vertex="1">
                    <mxGeometry x="220" width="220" height="20" as="geometry"/>
                </mxCell>
                <mxCell id="259" value="" style="group" parent="1" vertex="1" connectable="0">
                    <mxGeometry x="136" y="-2048" width="440" height="20" as="geometry"/>
                </mxCell>
                <mxCell id="260" value="&lt;div style=&quot;color: rgb(41, 41, 41); font-family: &amp;quot;Droid Sans Mono&amp;quot;, &amp;quot;monospace&amp;quot;, monospace; line-height: 19px;&quot;&gt;&lt;div style=&quot;line-height: 19px;&quot;&gt;&lt;span style=&quot;font-size: 10px;&quot;&gt;IND_TIPO_ALTERACAO&lt;/span&gt;&lt;/div&gt;&lt;/div&gt;" style="rounded=1;whiteSpace=wrap;html=1;align=left;" parent="259" vertex="1">
                    <mxGeometry x="50" width="160" height="20" as="geometry"/>
                </mxCell>
                <mxCell id="261" value="&lt;div style=&quot;color: rgb(41, 41, 41); font-family: &amp;quot;Droid Sans Mono&amp;quot;, &amp;quot;monospace&amp;quot;, monospace; line-height: 19px;&quot;&gt;&lt;span style=&quot;font-size: 10px;&quot;&gt;INT&lt;/span&gt;&lt;/div&gt;" style="rounded=1;whiteSpace=wrap;html=1;align=left;" parent="259" vertex="1">
                    <mxGeometry width="40" height="20" as="geometry"/>
                </mxCell>
                <mxCell id="262" value="&lt;div style=&quot;color: rgb(41, 41, 41); font-family: &amp;quot;Droid Sans Mono&amp;quot;, &amp;quot;monospace&amp;quot;, monospace; line-height: 19px;&quot;&gt;&lt;div style=&quot;line-height: 19px;&quot;&gt;&lt;font style=&quot;font-size: 10px;&quot;&gt;NULL&lt;/font&gt;&lt;/div&gt;&lt;/div&gt;" style="rounded=1;whiteSpace=wrap;html=1;align=left;" parent="259" vertex="1">
                    <mxGeometry x="220" width="220" height="20" as="geometry"/>
                </mxCell>
                <mxCell id="263" value="" style="group" parent="1" vertex="1" connectable="0">
                    <mxGeometry x="136" y="-2024" width="440" height="20" as="geometry"/>
                </mxCell>
                <mxCell id="264" value="&lt;div style=&quot;color: rgb(41, 41, 41); font-family: &amp;quot;Droid Sans Mono&amp;quot;, &amp;quot;monospace&amp;quot;, monospace; line-height: 19px;&quot;&gt;&lt;div style=&quot;line-height: 19px;&quot;&gt;&lt;span style=&quot;font-size: 10px;&quot;&gt;VAL_DOCUMENTO&lt;/span&gt;&lt;/div&gt;&lt;/div&gt;" style="rounded=1;whiteSpace=wrap;html=1;align=left;fillColor=#f8cecc;gradientColor=#ea6b66;strokeColor=#b85450;" parent="263" vertex="1">
                    <mxGeometry x="50" width="160" height="20" as="geometry"/>
                </mxCell>
                <mxCell id="265" value="&lt;div style=&quot;color: rgb(41, 41, 41); font-family: &amp;quot;Droid Sans Mono&amp;quot;, &amp;quot;monospace&amp;quot;, monospace; line-height: 19px;&quot;&gt;&lt;span style=&quot;font-size: 10px;&quot;&gt;FLOAT&lt;/span&gt;&lt;/div&gt;" style="rounded=1;whiteSpace=wrap;html=1;align=left;" parent="263" vertex="1">
                    <mxGeometry width="40" height="20" as="geometry"/>
                </mxCell>
                <mxCell id="266" value="&lt;div style=&quot;color: rgb(41, 41, 41); font-family: &amp;quot;Droid Sans Mono&amp;quot;, &amp;quot;monospace&amp;quot;, monospace; line-height: 19px;&quot;&gt;&lt;div style=&quot;line-height: 19px;&quot;&gt;&lt;font style=&quot;font-size: 10px;&quot;&gt;237.740.000&lt;/font&gt;&lt;/div&gt;&lt;/div&gt;" style="rounded=1;whiteSpace=wrap;html=1;align=left;fillColor=#f8cecc;gradientColor=#ea6b66;strokeColor=#b85450;" parent="263" vertex="1">
                    <mxGeometry x="220" width="220" height="20" as="geometry"/>
                </mxCell>
                <mxCell id="299" value="" style="group" parent="1" vertex="1" connectable="0">
                    <mxGeometry x="136" y="-2000" width="440" height="20" as="geometry"/>
                </mxCell>
                <mxCell id="300" value="&lt;div style=&quot;color: rgb(41, 41, 41); font-family: &amp;quot;Droid Sans Mono&amp;quot;, &amp;quot;monospace&amp;quot;, monospace; line-height: 19px;&quot;&gt;&lt;div style=&quot;line-height: 19px;&quot;&gt;&lt;span style=&quot;font-size: 10px;&quot;&gt;DTH_CRIACAO&lt;/span&gt;&lt;/div&gt;&lt;/div&gt;" style="rounded=1;whiteSpace=wrap;html=1;align=left;" parent="299" vertex="1">
                    <mxGeometry x="50" width="160" height="20" as="geometry"/>
                </mxCell>
                <mxCell id="301" value="&lt;div style=&quot;color: rgb(41, 41, 41); font-family: &amp;quot;Droid Sans Mono&amp;quot;, &amp;quot;monospace&amp;quot;, monospace; line-height: 19px;&quot;&gt;&lt;span style=&quot;font-size: 10px;&quot;&gt;DTT&lt;/span&gt;&lt;/div&gt;" style="rounded=1;whiteSpace=wrap;html=1;align=left;" parent="299" vertex="1">
                    <mxGeometry width="40" height="20" as="geometry"/>
                </mxCell>
                <mxCell id="302" value="&lt;div style=&quot;color: rgb(41, 41, 41); font-family: &amp;quot;Droid Sans Mono&amp;quot;, &amp;quot;monospace&amp;quot;, monospace; line-height: 19px;&quot;&gt;&lt;div style=&quot;line-height: 19px;&quot;&gt;&lt;font style=&quot;font-size: 10px;&quot;&gt;2024-01-04 11:05:07.000&lt;/font&gt;&lt;/div&gt;&lt;/div&gt;" style="rounded=1;whiteSpace=wrap;html=1;align=left;" parent="299" vertex="1">
                    <mxGeometry x="220" width="220" height="20" as="geometry"/>
                </mxCell>
                <mxCell id="303" value="" style="rounded=0;whiteSpace=wrap;html=1;" parent="1" vertex="1">
                    <mxGeometry x="691" y="-2299" width="470" height="220" as="geometry"/>
                </mxCell>
                <mxCell id="304" value="&lt;div style=&quot;color: rgb(41, 41, 41); font-family: &amp;quot;Droid Sans Mono&amp;quot;, &amp;quot;monospace&amp;quot;, monospace; line-height: 19px;&quot;&gt;&lt;b style=&quot;&quot;&gt;&lt;font style=&quot;font-size: 12px;&quot;&gt;SIAFE_RECIFE_2024.SPE_ND_ITEM&lt;/font&gt;&lt;/b&gt;&lt;/div&gt;&lt;div style=&quot;color: rgb(41, 41, 41); font-family: &amp;quot;Droid Sans Mono&amp;quot;, &amp;quot;monospace&amp;quot;, monospace; line-height: 19px;&quot;&gt;&lt;b style=&quot;&quot;&gt;&lt;font style=&quot;font-size: 12px;&quot;&gt;&quot;ND Nota Dotação Itens&quot;&lt;/font&gt;&lt;/b&gt;&lt;/div&gt;" style="rounded=0;whiteSpace=wrap;html=1;fillColor=#fa6800;strokeColor=#C73500;fontColor=#000000;" parent="1" vertex="1">
                    <mxGeometry x="691" y="-2339" width="470" height="40" as="geometry"/>
                </mxCell>
                <mxCell id="305" value="" style="group" parent="1" vertex="1" connectable="0">
                    <mxGeometry x="711" y="-2288" width="440" height="20" as="geometry"/>
                </mxCell>
                <mxCell id="306" value="&lt;div style=&quot;color: rgb(41, 41, 41); font-family: &amp;quot;Droid Sans Mono&amp;quot;, &amp;quot;monospace&amp;quot;, monospace; line-height: 19px;&quot;&gt;&lt;div style=&quot;line-height: 19px;&quot;&gt;&lt;font style=&quot;font-size: 10px;&quot;&gt;ANO_EXERCICIO_CTX&lt;/font&gt;&lt;/div&gt;&lt;/div&gt;" style="rounded=1;whiteSpace=wrap;html=1;align=left;fillColor=#ffcd28;gradientColor=#ffa500;strokeColor=#d79b00;" parent="305" vertex="1">
                    <mxGeometry x="50" width="160" height="20" as="geometry"/>
                </mxCell>
                <mxCell id="307" value="&lt;div style=&quot;color: rgb(41, 41, 41); font-family: &amp;quot;Droid Sans Mono&amp;quot;, &amp;quot;monospace&amp;quot;, monospace; line-height: 19px;&quot;&gt;&lt;font style=&quot;font-size: 10px;&quot;&gt;INT&lt;/font&gt;&lt;/div&gt;" style="rounded=1;whiteSpace=wrap;html=1;align=left;" parent="305" vertex="1">
                    <mxGeometry width="40" height="20" as="geometry"/>
                </mxCell>
                <mxCell id="308" value="&lt;div style=&quot;color: rgb(41, 41, 41); font-family: &amp;quot;Droid Sans Mono&amp;quot;, &amp;quot;monospace&amp;quot;, monospace; line-height: 19px;&quot;&gt;&lt;div style=&quot;line-height: 19px;&quot;&gt;&lt;font style=&quot;font-size: 10px;&quot;&gt;2024&lt;/font&gt;&lt;/div&gt;&lt;/div&gt;" style="rounded=1;whiteSpace=wrap;html=1;align=left;" parent="305" vertex="1">
                    <mxGeometry x="220" width="220" height="20" as="geometry"/>
                </mxCell>
                <mxCell id="309" value="OBS.: Contêm os Itens do empenho e seus valores." style="rounded=0;whiteSpace=wrap;html=1;fontSize=10;align=left;fillColor=#fff2cc;strokeColor=#d6b656;" parent="1" vertex="1">
                    <mxGeometry x="711" y="-2133" width="440" height="35" as="geometry"/>
                </mxCell>
                <mxCell id="310" value="" style="group" parent="1" vertex="1" connectable="0">
                    <mxGeometry x="711" y="-2264" width="440" height="20" as="geometry"/>
                </mxCell>
                <mxCell id="311" value="&lt;div style=&quot;color: rgb(41, 41, 41); font-family: &amp;quot;Droid Sans Mono&amp;quot;, &amp;quot;monospace&amp;quot;, monospace; line-height: 19px;&quot;&gt;&lt;div style=&quot;line-height: 19px;&quot;&gt;&lt;font style=&quot;font-size: 10px;&quot;&gt;COD_CLIENTE_CTX&lt;/font&gt;&lt;/div&gt;&lt;/div&gt;" style="rounded=1;whiteSpace=wrap;html=1;align=left;fillColor=#ffcd28;gradientColor=#ffa500;strokeColor=#d79b00;" parent="310" vertex="1">
                    <mxGeometry x="50" width="160" height="20" as="geometry"/>
                </mxCell>
                <mxCell id="312" value="&lt;div style=&quot;color: rgb(41, 41, 41); font-family: &amp;quot;Droid Sans Mono&amp;quot;, &amp;quot;monospace&amp;quot;, monospace; line-height: 19px;&quot;&gt;&lt;font style=&quot;font-size: 10px;&quot;&gt;STR&lt;/font&gt;&lt;/div&gt;" style="rounded=1;whiteSpace=wrap;html=1;align=left;" parent="310" vertex="1">
                    <mxGeometry width="40" height="20" as="geometry"/>
                </mxCell>
                <mxCell id="313" value="&lt;div style=&quot;color: rgb(41, 41, 41); font-family: &amp;quot;Droid Sans Mono&amp;quot;, &amp;quot;monospace&amp;quot;, monospace; line-height: 19px;&quot;&gt;&lt;div style=&quot;line-height: 19px;&quot;&gt;&lt;font style=&quot;font-size: 10px;&quot;&gt;00001&lt;/font&gt;&lt;/div&gt;&lt;/div&gt;" style="rounded=1;whiteSpace=wrap;html=1;align=left;" parent="310" vertex="1">
                    <mxGeometry x="220" width="220" height="20" as="geometry"/>
                </mxCell>
                <mxCell id="314" value="" style="group" parent="1" vertex="1" connectable="0">
                    <mxGeometry x="711" y="-2240" width="440" height="20" as="geometry"/>
                </mxCell>
                <mxCell id="315" value="&lt;div style=&quot;color: rgb(41, 41, 41); font-family: &amp;quot;Droid Sans Mono&amp;quot;, &amp;quot;monospace&amp;quot;, monospace; line-height: 19px;&quot;&gt;&lt;div style=&quot;line-height: 19px;&quot;&gt;&lt;font style=&quot;font-size: 10px;&quot;&gt;IDT_DOCUMENTO&lt;/font&gt;&lt;/div&gt;&lt;/div&gt;" style="rounded=1;whiteSpace=wrap;html=1;align=left;fillColor=#ffcd28;gradientColor=#ffa500;strokeColor=#d79b00;" parent="314" vertex="1">
                    <mxGeometry x="50" width="160" height="20" as="geometry"/>
                </mxCell>
                <mxCell id="316" value="&lt;div style=&quot;color: rgb(41, 41, 41); font-family: &amp;quot;Droid Sans Mono&amp;quot;, &amp;quot;monospace&amp;quot;, monospace; line-height: 19px;&quot;&gt;&lt;font style=&quot;font-size: 10px;&quot;&gt;INT&lt;/font&gt;&lt;/div&gt;" style="rounded=1;whiteSpace=wrap;html=1;align=left;" parent="314" vertex="1">
                    <mxGeometry width="40" height="20" as="geometry"/>
                </mxCell>
                <mxCell id="317" value="&lt;div style=&quot;color: rgb(41, 41, 41); font-family: &amp;quot;Droid Sans Mono&amp;quot;, &amp;quot;monospace&amp;quot;, monospace; line-height: 19px;&quot;&gt;&lt;div style=&quot;line-height: 19px;&quot;&gt;&lt;font style=&quot;font-size: 10px;&quot;&gt;411&lt;/font&gt;&lt;/div&gt;&lt;/div&gt;" style="rounded=1;whiteSpace=wrap;html=1;align=left;" parent="314" vertex="1">
                    <mxGeometry x="220" width="220" height="20" as="geometry"/>
                </mxCell>
                <mxCell id="326" value="" style="group" parent="1" vertex="1" connectable="0">
                    <mxGeometry x="711" y="-2215" width="440" height="20" as="geometry"/>
                </mxCell>
                <mxCell id="327" value="&lt;div style=&quot;color: rgb(41, 41, 41); font-family: &amp;quot;Droid Sans Mono&amp;quot;, &amp;quot;monospace&amp;quot;, monospace; line-height: 19px;&quot;&gt;&lt;div style=&quot;line-height: 19px;&quot;&gt;&lt;font style=&quot;font-size: 10px;&quot;&gt;COD_CLASSIFICACAO&lt;/font&gt;&lt;/div&gt;&lt;/div&gt;" style="rounded=1;whiteSpace=wrap;html=1;align=left;" parent="326" vertex="1">
                    <mxGeometry x="50" width="160" height="20" as="geometry"/>
                </mxCell>
                <mxCell id="328" value="&lt;div style=&quot;color: rgb(41, 41, 41); font-family: &amp;quot;Droid Sans Mono&amp;quot;, &amp;quot;monospace&amp;quot;, monospace; line-height: 19px;&quot;&gt;&lt;font style=&quot;font-size: 10px;&quot;&gt;STR&lt;/font&gt;&lt;/div&gt;" style="rounded=1;whiteSpace=wrap;html=1;align=left;" parent="326" vertex="1">
                    <mxGeometry width="40" height="20" as="geometry"/>
                </mxCell>
                <mxCell id="329" value="&lt;div style=&quot;color: rgb(41, 41, 41); font-family: &amp;quot;Droid Sans Mono&amp;quot;, &amp;quot;monospace&amp;quot;, monospace; line-height: 19px;&quot;&gt;&lt;div style=&quot;line-height: 19px;&quot;&gt;&lt;font style=&quot;font-size: 10px;&quot;&gt;STRING COM AS CARACTERISTICAS&amp;nbsp;&lt;/font&gt;&lt;/div&gt;&lt;/div&gt;" style="rounded=1;whiteSpace=wrap;html=1;align=left;" parent="326" vertex="1">
                    <mxGeometry x="220" width="220" height="20" as="geometry"/>
                </mxCell>
                <mxCell id="330" value="" style="group" parent="1" vertex="1" connectable="0">
                    <mxGeometry x="711" y="-2189" width="440" height="20" as="geometry"/>
                </mxCell>
                <mxCell id="331" value="&lt;div style=&quot;color: rgb(41, 41, 41); font-family: &amp;quot;Droid Sans Mono&amp;quot;, &amp;quot;monospace&amp;quot;, monospace; line-height: 19px;&quot;&gt;&lt;div style=&quot;line-height: 19px;&quot;&gt;&lt;font style=&quot;font-size: 10px;&quot;&gt;IDT_ESTRUT_CLASSIF&lt;/font&gt;&lt;/div&gt;&lt;/div&gt;" style="rounded=1;whiteSpace=wrap;html=1;align=left;" parent="330" vertex="1">
                    <mxGeometry x="50" width="160" height="20" as="geometry"/>
                </mxCell>
                <mxCell id="332" value="&lt;div style=&quot;color: rgb(41, 41, 41); font-family: &amp;quot;Droid Sans Mono&amp;quot;, &amp;quot;monospace&amp;quot;, monospace; line-height: 19px;&quot;&gt;&lt;span style=&quot;font-size: 10px;&quot;&gt;INT&lt;/span&gt;&lt;/div&gt;" style="rounded=1;whiteSpace=wrap;html=1;align=left;" parent="330" vertex="1">
                    <mxGeometry width="40" height="20" as="geometry"/>
                </mxCell>
                <mxCell id="333" value="&lt;div style=&quot;color: rgb(41, 41, 41); font-family: &amp;quot;Droid Sans Mono&amp;quot;, &amp;quot;monospace&amp;quot;, monospace; line-height: 19px;&quot;&gt;&lt;div style=&quot;line-height: 19px;&quot;&gt;&lt;font style=&quot;font-size: 10px;&quot;&gt;1&lt;/font&gt;&lt;/div&gt;&lt;/div&gt;" style="rounded=1;whiteSpace=wrap;html=1;align=left;" parent="330" vertex="1">
                    <mxGeometry x="220" width="220" height="20" as="geometry"/>
                </mxCell>
                <mxCell id="334" value="" style="group" parent="1" vertex="1" connectable="0">
                    <mxGeometry x="711" y="-2164" width="440" height="20" as="geometry"/>
                </mxCell>
                <mxCell id="335" value="&lt;div style=&quot;color: rgb(41, 41, 41); font-family: &amp;quot;Droid Sans Mono&amp;quot;, &amp;quot;monospace&amp;quot;, monospace; line-height: 19px;&quot;&gt;&lt;div style=&quot;line-height: 19px;&quot;&gt;&lt;font style=&quot;font-size: 10px;&quot;&gt;VAL_ITEM&lt;/font&gt;&lt;/div&gt;&lt;/div&gt;" style="rounded=1;whiteSpace=wrap;html=1;align=left;" parent="334" vertex="1">
                    <mxGeometry x="50" width="160" height="20" as="geometry"/>
                </mxCell>
                <mxCell id="336" value="&lt;div style=&quot;color: rgb(41, 41, 41); font-family: &amp;quot;Droid Sans Mono&amp;quot;, &amp;quot;monospace&amp;quot;, monospace; line-height: 19px;&quot;&gt;&lt;span style=&quot;font-size: 10px;&quot;&gt;FLOAT&lt;/span&gt;&lt;/div&gt;" style="rounded=1;whiteSpace=wrap;html=1;align=left;" parent="334" vertex="1">
                    <mxGeometry width="40" height="20" as="geometry"/>
                </mxCell>
                <mxCell id="337" value="&lt;div style=&quot;color: rgb(41, 41, 41); font-family: &amp;quot;Droid Sans Mono&amp;quot;, &amp;quot;monospace&amp;quot;, monospace; line-height: 19px;&quot;&gt;&lt;div style=&quot;line-height: 19px;&quot;&gt;&lt;font style=&quot;font-size: 10px;&quot;&gt;2.000.000&lt;/font&gt;&lt;/div&gt;&lt;/div&gt;" style="rounded=1;whiteSpace=wrap;html=1;align=left;" parent="334" vertex="1">
                    <mxGeometry x="220" width="220" height="20" as="geometry"/>
                </mxCell>
                <mxCell id="406" value="" style="edgeStyle=entityRelationEdgeStyle;fontSize=12;html=1;endArrow=ERoneToMany;exitX=1;exitY=0.5;exitDx=0;exitDy=0;entryX=0;entryY=0.5;entryDx=0;entryDy=0;" parent="1" source="172" target="304" edge="1">
                    <mxGeometry width="100" height="100" relative="1" as="geometry">
                        <mxPoint x="444" y="-2009" as="sourcePoint"/>
                        <mxPoint x="544" y="-2109" as="targetPoint"/>
                    </mxGeometry>
                </mxCell>
                <mxCell id="1041" value="KEYS" style="rounded=1;whiteSpace=wrap;html=1;fillColor=#ffcd28;gradientColor=#ffa500;strokeColor=#d79b00;" parent="1" vertex="1">
                    <mxGeometry x="134" y="-2413" width="50" height="30" as="geometry"/>
                </mxCell>
                <mxCell id="1042" value="VALORES" style="rounded=1;whiteSpace=wrap;html=1;fillColor=#f8cecc;gradientColor=#ea6b66;strokeColor=#b85450;" parent="1" vertex="1">
                    <mxGeometry x="187" y="-2413" width="70" height="30" as="geometry"/>
                </mxCell>
                <mxCell id="1043" value="Legendas Visuais:&amp;nbsp;" style="text;html=1;strokeColor=none;fillColor=none;align=left;verticalAlign=middle;whiteSpace=wrap;rounded=0;" parent="1" vertex="1">
                    <mxGeometry x="18" y="-2413" width="110" height="30" as="geometry"/>
                </mxCell>
                <mxCell id="1045" style="edgeStyle=none;html=1;exitX=0;exitY=0.5;exitDx=0;exitDy=0;entryX=1;entryY=0.5;entryDx=0;entryDy=0;dashed=1;" parent="1" source="1044" target="253" edge="1">
                    <mxGeometry relative="1" as="geometry"/>
                </mxCell>
                <mxCell id="1044" value="&lt;b&gt;Está Contabilizado?&lt;/b&gt;&lt;br&gt;1 = Sim&lt;br&gt;0 = Não" style="rounded=0;whiteSpace=wrap;html=1;align=left;" parent="1" vertex="1">
                    <mxGeometry x="630" y="-2044" width="120" height="60" as="geometry"/>
                </mxCell>
                <mxCell id="1914" style="edgeStyle=none;html=1;exitX=0;exitY=0.5;exitDx=0;exitDy=0;entryX=1;entryY=0.5;entryDx=0;entryDy=0;" parent="1" source="307" target="195" edge="1">
                    <mxGeometry relative="1" as="geometry"/>
                </mxCell>
                <mxCell id="1915" style="edgeStyle=none;html=1;exitX=0;exitY=0.5;exitDx=0;exitDy=0;entryX=1;entryY=0.5;entryDx=0;entryDy=0;" parent="1" source="312" target="200" edge="1">
                    <mxGeometry relative="1" as="geometry"/>
                </mxCell>
                <mxCell id="1916" style="edgeStyle=none;html=1;exitX=0;exitY=0.5;exitDx=0;exitDy=0;entryX=1;entryY=0.5;entryDx=0;entryDy=0;" parent="1" source="316" target="204" edge="1">
                    <mxGeometry relative="1" as="geometry"/>
                </mxCell>
                <mxCell id="3021" style="edgeStyle=none;html=1;exitX=1;exitY=0.5;exitDx=0;exitDy=0;entryX=0;entryY=0.5;entryDx=0;entryDy=0;" parent="1" source="3020" target="211" edge="1">
                    <mxGeometry relative="1" as="geometry"/>
                </mxCell>
                <mxCell id="3020" value="&lt;span style=&quot;color: rgb(41, 41, 41); font-family: &amp;quot;Droid Sans Mono&amp;quot;, &amp;quot;monospace&amp;quot;, monospace; font-size: 14px; text-align: left; background-color: rgb(255, 255, 255);&quot;&gt;SPA_UG&lt;/span&gt;" style="rounded=0;whiteSpace=wrap;html=1;" parent="1" vertex="1">
                    <mxGeometry x="3" y="-2120" width="100" height="22" as="geometry"/>
                </mxCell>
            </root>
        </mxGraphModel>
    </diagram>
</mxfile>